<svg width="145" height="145" viewBox="0 0 145 145" fill="none" xmlns="http://www.w3.org/2000/svg">
<rect width="145" height="145" rx="16" fill="white"/>
<path d="M29.9982 71.8002C28.8267 72.9718 26.9272 72.9718 25.7556 71.8002L20.0988 66.1434C18.9272 64.9718 18.9272 63.0723 20.0988 61.9008L62.5252 19.4743C63.6967 18.3028 65.5962 18.3028 66.7678 19.4743L72.4247 25.1312C73.5962 26.3028 73.5962 28.2023 72.4247 29.3738L29.9982 71.8002Z" fill="#1E1E1E"/>
<path d="M43.4338 85.2353C42.2622 86.4069 40.3627 86.4069 39.1912 85.2353L33.5343 79.5784C32.3627 78.4069 32.3627 76.5074 33.5343 75.3358L75.9607 32.9094C77.1323 31.7378 79.0318 31.7378 80.2034 32.9094L85.8602 38.5663C87.0318 39.7378 87.0318 41.6373 85.8602 42.8089L43.4338 85.2353Z" fill="#1E1E1E"/>
<path d="M72.1104 105.111C72.1104 106.767 70.7672 108.111 69.1104 108.111H61.1104C59.4535 108.111 58.1104 106.767 58.1104 105.111V74.1152C58.1104 72.4584 59.4535 71.1152 61.1104 71.1152H69.1104C70.7672 71.1152 72.1104 72.4584 72.1104 74.1152V105.111Z" fill="#2420F4"/>
<path d="M74.0838 57.5862C72.4269 57.5862 71.0838 58.9293 71.0838 60.5862V68.5862C71.0838 70.243 72.4269 71.5862 74.0838 71.5862H105.079C106.736 71.5862 108.079 70.243 108.079 68.5862V60.5862C108.079 58.9293 106.736 57.5862 105.079 57.5862H74.0838Z" fill="#2420F4"/>
<path d="M83.0315 124.833C81.8599 126.005 79.9604 126.005 78.7888 124.833L73.132 119.176C71.9604 118.005 71.9604 116.105 73.132 114.934L115.558 72.5073C116.73 71.3357 118.629 71.3357 119.801 72.5073L125.458 78.1642C126.629 79.3357 126.629 81.2352 125.458 82.4068L83.0315 124.833Z" fill="#1E1E1E"/>
</svg>